REM MD5 1ed278b45c1921cdd9108cf448c9b54e
FILE "Chronicles of the Sword (Germany) (Disc 2).bin" BINARY
  TRACK 01 MODE2/2352
    INDEX 01 00:00:00
  TRACK 02 AUDIO
    INDEX 00 22:08:00
    INDEX 01 22:10:00
  TRACK 03 AUDIO
    INDEX 00 22:30:00
    INDEX 01 22:32:00
  TRACK 04 AUDIO
    INDEX 00 23:46:00
    INDEX 01 23:48:00
  TRACK 05 AUDIO
    INDEX 00 24:55:00
    INDEX 01 24:57:00
  TRACK 06 AUDIO
    INDEX 00 27:43:00
    INDEX 01 27:45:00
  TRACK 07 AUDIO
    INDEX 00 27:55:00
    INDEX 01 27:57:00
  TRACK 08 AUDIO
    INDEX 00 28:02:00
    INDEX 01 28:04:00
  TRACK 09 AUDIO
    INDEX 00 28:10:00
    INDEX 01 28:12:00
  TRACK 10 AUDIO
    INDEX 00 28:24:00
    INDEX 01 28:26:00
  TRACK 11 AUDIO
    INDEX 00 29:38:00
    INDEX 01 29:40:00
  TRACK 12 AUDIO
    INDEX 00 29:45:00
    INDEX 01 29:47:00
  TRACK 13 AUDIO
    INDEX 00 29:54:00
    INDEX 01 29:56:00
  TRACK 14 AUDIO
    INDEX 00 30:07:00
    INDEX 01 30:09:00
  TRACK 15 AUDIO
    INDEX 00 30:21:00
    INDEX 01 30:23:00
  TRACK 16 AUDIO
    INDEX 00 30:34:00
    INDEX 01 30:36:00
  TRACK 17 AUDIO
    INDEX 00 31:10:00
    INDEX 01 31:12:00
  TRACK 18 AUDIO
    INDEX 00 31:21:00
    INDEX 01 31:23:00
  TRACK 19 AUDIO
    INDEX 00 31:38:00
    INDEX 01 31:40:00
  TRACK 20 AUDIO
    INDEX 00 37:28:00
    INDEX 01 37:30:00
  TRACK 21 AUDIO
    INDEX 00 37:37:00
    INDEX 01 37:39:00
  TRACK 22 AUDIO
    INDEX 00 37:49:00
    INDEX 01 37:51:00
  TRACK 23 AUDIO
    INDEX 00 38:04:00
    INDEX 01 38:06:00
  TRACK 24 AUDIO
    INDEX 00 38:15:00
    INDEX 01 38:17:00
  TRACK 25 AUDIO
    INDEX 00 38:30:00
    INDEX 01 38:32:00
  TRACK 26 AUDIO
    INDEX 00 39:27:00
    INDEX 01 39:29:00
  TRACK 27 AUDIO
    INDEX 00 39:44:00
    INDEX 01 39:46:00
  TRACK 28 AUDIO
    INDEX 00 41:55:00
    INDEX 01 41:57:00
  TRACK 29 AUDIO
    INDEX 00 43:57:00
    INDEX 01 43:59:00
  TRACK 30 AUDIO
    INDEX 00 44:21:00
    INDEX 01 44:23:00
  TRACK 31 AUDIO
    INDEX 00 44:28:00
    INDEX 01 44:30:00
  TRACK 32 AUDIO
    INDEX 00 44:49:00
    INDEX 01 44:51:00
  TRACK 33 AUDIO
    INDEX 00 44:56:00
    INDEX 01 44:58:00
  TRACK 34 AUDIO
    INDEX 00 45:33:00
    INDEX 01 45:35:00
  TRACK 35 AUDIO
    INDEX 00 45:41:00
    INDEX 01 45:43:00
  TRACK 36 AUDIO
    INDEX 00 45:55:00
    INDEX 01 45:57:00
  TRACK 37 AUDIO
    INDEX 00 46:08:00
    INDEX 01 46:10:00
  TRACK 38 AUDIO
    INDEX 00 46:15:00
    INDEX 01 46:17:00
  TRACK 39 AUDIO
    INDEX 00 46:22:00
    INDEX 01 46:24:00
  TRACK 40 AUDIO
    INDEX 00 46:30:00
    INDEX 01 46:32:00
  TRACK 41 AUDIO
    INDEX 00 49:06:00
    INDEX 01 49:08:00
  TRACK 42 AUDIO
    INDEX 00 49:22:00
    INDEX 01 49:24:00
  TRACK 43 AUDIO
    INDEX 00 50:14:00
    INDEX 01 50:16:00
  TRACK 44 AUDIO
    INDEX 00 50:47:00
    INDEX 01 50:49:00
  TRACK 45 AUDIO
    INDEX 00 51:04:00
    INDEX 01 51:06:00
  TRACK 46 AUDIO
    INDEX 00 51:13:00
    INDEX 01 51:15:00
  TRACK 47 AUDIO
    INDEX 00 52:03:00
    INDEX 01 52:05:00
  TRACK 48 AUDIO
    INDEX 00 52:11:00
    INDEX 01 52:13:00
REM LEADOUT 55:14:00
